<?xml version="1.0" encoding="utf-8"?>
<!-- Generator: Adobe Illustrator 19.0.1, SVG Export Plug-In . SVG Version: 6.00 Build 0)  -->
<svg version="1.1" id="Capa_1" xmlns="http://www.w3.org/2000/svg" xmlns:xlink="http://www.w3.org/1999/xlink" x="0px" y="0px"
	 viewBox="0 0 180 46" style="enable-background:new 0 0 180 46;" xml:space="preserve">
<style type="text/css">
	.st0{fill:#FFFFFF;}
	.st1{font-family:'GearedSlab-Bold';}
	.st2{font-size:17.1px;}
	.st3{font-size:11.7px;}
	.st4{font-size:34.2px;}
</style>
<text transform="matrix(1 0 0 1 41.8383 23.0024)" class="st0 st1 st2">INTER</text>
<path class="st0" d="M9.7,16.7c0-2.8,1.1-5.3,2.8-7.2v14.4C10.8,22,9.7,19.5,9.7,16.7z"/>
<path class="st0" d="M20.5,27.5c-2.3,0-4.5-0.7-6.2-2h12.5C25,26.7,22.8,27.5,20.5,27.5z"/>
<path class="st0" d="M31.3,16.7c0,2.8-1.1,5.3-2.8,7.2V9.5C30.2,11.4,31.3,14,31.3,16.7z"/>
<path class="st0" d="M39,23.7c0,5.8-2.6,10.9-6.8,14.3v-4.8H8.8V38C4.6,34.6,2,29.5,2,23.7c0-6.9,3.8-13,9.5-16.1
	c-2.4,2.3-3.9,5.6-3.9,9.2c0,7.1,5.8,12.9,12.9,12.9c7.1,0,12.9-5.8,12.9-12.9c0-3.6-1.5-6.9-3.9-9.2C35.2,10.7,39,16.7,39,23.7z"/>
<text transform="matrix(1 0 0 1 41.8388 35.6094)" class="st0 st1 st3">OCEANIC</text>
<text transform="matrix(1 0 0 1 76.9565 35.6093)" class="st0 st1 st4">MARKET</text>
<path class="st0" d="M20.1,12.7c-0.2-0.2-0.3-0.4-0.3-0.6c0-0.2,0.1-0.5,0.3-0.6c0.2-0.2,0.4-0.3,0.6-0.3c0.2,0,0.5,0.1,0.6,0.3
	c0.2,0.2,0.3,0.4,0.3,0.6c0,0.3-0.1,0.5-0.3,0.6c-0.2,0.2-0.4,0.3-0.6,0.3C20.4,13,20.2,12.9,20.1,12.7z"/>
<path class="st0" d="M22,20.6c0.1,0.1,0.1,0.3,0.1,0.5v0.8h-2.8V21c0-0.2,0-0.4,0.1-0.5c0.1-0.1,0.2-0.2,0.2-0.2
	c0,0,0.1-0.1,0.1-0.1c0,0,0-0.1,0.1-0.2V16c0-0.1-0.1-0.2-0.2-0.3c-0.1,0-0.2-0.1-0.2-0.2c-0.1-0.1-0.1-0.3-0.1-0.4v-0.9h2
	c0.1,0,0.2,0,0.2,0.1c0,0.1,0.1,0.1,0.1,0.2V20c0,0.1,0,0.2,0,0.2c0,0,0.1,0.1,0.1,0.1C21.9,20.4,21.9,20.5,22,20.6z"/>
<path class="st0" d="M20.1,12.7c-0.2-0.2-0.3-0.4-0.3-0.6c0-0.2,0.1-0.5,0.3-0.6c0.2-0.2,0.4-0.3,0.6-0.3c0.2,0,0.5,0.1,0.6,0.3
	c0.2,0.2,0.3,0.4,0.3,0.6c0,0.3-0.1,0.5-0.3,0.6c-0.2,0.2-0.4,0.3-0.6,0.3C20.4,13,20.2,12.9,20.1,12.7z"/>
<path class="st0" d="M22,20.6c0.1,0.1,0.1,0.3,0.1,0.5v0.8h-2.8V21c0-0.2,0-0.4,0.1-0.5c0.1-0.1,0.2-0.2,0.2-0.2
	c0,0,0.1-0.1,0.1-0.1c0,0,0-0.1,0.1-0.2V16c0-0.1-0.1-0.2-0.2-0.3c-0.1,0-0.2-0.1-0.2-0.2c-0.1-0.1-0.1-0.3-0.1-0.4v-0.9h2
	c0.1,0,0.2,0,0.2,0.1c0,0.1,0.1,0.1,0.1,0.2V20c0,0.1,0,0.2,0,0.2c0,0,0.1,0.1,0.1,0.1C21.9,20.4,21.9,20.5,22,20.6z"/>
<path class="st0" d="M28.5,9.5c-2-2.2-4.8-3.5-8-3.5c-3.2,0-6,1.4-8,3.5c-1.7,1.9-2.8,4.4-2.8,7.2c0,2.8,1.1,5.3,2.8,7.2
	c0.5,0.6,1.1,1.1,1.7,1.5c1.8,1.3,3.9,2,6.2,2c2.3,0,4.5-0.7,6.2-2c0.6-0.4,1.2-1,1.7-1.5c1.7-1.9,2.8-4.4,2.8-7.2
	C31.3,14,30.2,11.4,28.5,9.5z M20.5,24.6c-4.3,0-7.9-3.5-7.9-7.9c0-4.3,3.5-7.8,7.9-7.8c4.3,0,7.8,3.5,7.8,7.8
	C28.4,21.1,24.8,24.6,20.5,24.6z"/>
<path class="st0" d="M20.1,12.7c-0.2-0.2-0.3-0.4-0.3-0.6c0-0.2,0.1-0.5,0.3-0.6c0.2-0.2,0.4-0.3,0.6-0.3c0.2,0,0.5,0.1,0.6,0.3
	c0.2,0.2,0.3,0.4,0.3,0.6c0,0.3-0.1,0.5-0.3,0.6c-0.2,0.2-0.4,0.3-0.6,0.3C20.4,13,20.2,12.9,20.1,12.7z"/>
<path class="st0" d="M22.1,21.1v0.8h-2.8V21c0-0.2,0-0.4,0.1-0.5c0.1-0.1,0.2-0.2,0.2-0.2c0,0,0.1-0.1,0.1-0.1c0,0,0-0.1,0.1-0.2V16
	c0-0.1-0.1-0.2-0.2-0.3c-0.1,0-0.2-0.1-0.2-0.2c-0.1-0.1-0.1-0.3-0.1-0.4v-0.9h2c0.1,0,0.2,0,0.2,0.1c0,0.1,0.1,0.1,0.1,0.2V20
	c0,0.1,0,0.2,0,0.2c0,0,0.1,0.1,0.1,0.1c0.1,0.1,0.2,0.1,0.2,0.2C22.1,20.7,22.1,20.9,22.1,21.1z"/>
<g>
	<path class="st0" d="M21.3,11.5c-0.2-0.2-0.4-0.3-0.6-0.3c-0.3,0-0.5,0.1-0.6,0.3c-0.2,0.2-0.3,0.4-0.3,0.6c0,0.3,0.1,0.5,0.3,0.6
		c0.2,0.2,0.4,0.3,0.6,0.3c0.2,0,0.5-0.1,0.6-0.3c0.2-0.2,0.3-0.4,0.3-0.6C21.6,11.9,21.5,11.7,21.3,11.5z M22,20.6
		c-0.1-0.1-0.2-0.2-0.2-0.2c-0.1,0-0.1-0.1-0.1-0.1c0,0,0-0.1,0-0.2v-5.6c0-0.1,0-0.2-0.1-0.2c0-0.1-0.1-0.1-0.2-0.1h-2V15
		c0,0.2,0,0.3,0.1,0.4c0.1,0.1,0.1,0.2,0.2,0.2c0.1,0.1,0.2,0.2,0.2,0.3v4.1c0,0.1,0,0.1-0.1,0.2c0,0-0.1,0.1-0.1,0.1
		c-0.1,0-0.2,0.1-0.2,0.2c-0.1,0.1-0.1,0.3-0.1,0.5v0.8h2.8v-0.8C22.1,20.9,22.1,20.7,22,20.6z"/>
</g>
<rect x="9.8" y="34" class="st0" width="21.5" height="1.1"/>
<rect x="9.8" y="36" class="st0" width="21.5" height="1.1"/>
<rect x="0" class="st0" width="180" height="2.7"/>
<rect x="1" y="43.3" class="st0" width="180" height="2.7"/>
</svg>
